<svg xmlns="http://www.w3.org/2000/svg" version="1.1" xmlnsXlink="http://www.w3.org/1999/xlink" xmlnsSvgjs="http://svgjs.dev/svgjs" viewBox="150.85 384 684.07 232.27"><g transform="matrix(0.7,0,0,0.7,149.57575801769008,384.63261193386967)"><svg xmlns="http://www.w3.org/2000/svg" xmlns:xlink="http://www.w3.org/1999/xlink" viewBox="0 0 396 131" data-background-color="#ffffff" preserveAspectRatio="xMidYMid meet" height="330" width="1000"><g id="tight-bounds" transform="matrix(1,0,0,1,0.24000025000759706,-0.07520417028973725)"><svg viewBox="0 0 395.52 131.15040834057947" height="131.15040834057947" width="395.52"><g><svg viewBox="0 0 646.5202967131527 214.37955328277354" height="131.15040834057947" width="395.52"><g transform="matrix(1,0,0,1,0,29.628433196099678)"><svg viewBox="0 0 395.5199999999999 155.1226868905742" height="155.1226868905742" width="395.5199999999999"><g><svg viewBox="0 0 395.5199999999999 155.1226868905742" height="155.1226868905742" width="395.5199999999999"><g><svg viewBox="0 0 395.5199999999999 155.1226868905742" height="155.1226868905742" width="395.5199999999999"><g transform="matrix(1,0,0,1,0,0)"><svg width="395.5199999999999" viewBox="4.050000190734863 -35.45000076293945 92.29999542236328 36.20000076293945" height="155.1226868905742" data-palette-color="#7a26c1"><path d="M17.2 0.75L17.2 0.75Q13.8 0.75 11.3-0.3 8.8-1.35 7.2-3.18 5.6-5 4.83-7.5 4.05-10 4.05-12.9L4.05-12.9 4.05-34.65 8.9-34.65 8.9-13.45Q8.9-8.25 11.2-5.9 13.5-3.55 17.2-3.55L17.2-3.55Q19.05-3.55 20.58-4.13 22.1-4.7 23.2-5.9 24.3-7.1 24.9-8.97 25.5-10.85 25.5-13.45L25.5-13.45 25.5-34.65 30.35-34.65 30.35-12.9Q30.35-10 29.58-7.5 28.8-5 27.18-3.18 25.55-1.35 23.08-0.3 20.6 0.75 17.2 0.75ZM53.6 0.75L53.6 0.75Q49.95 0.75 46.95-0.45 43.95-1.65 41.8-3.95 39.65-6.25 38.47-9.63 37.3-13 37.3-17.35L37.3-17.35Q37.3-21.7 38.62-25.08 39.95-28.45 42.2-30.75 44.45-33.05 47.45-34.25 50.45-35.45 53.85-35.45L53.85-35.45Q56-35.45 57.72-35.15 59.45-34.85 60.72-34.45 62-34.05 62.8-33.65 63.6-33.25 63.9-33.05L63.9-33.05 62.5-29.05Q62.05-29.35 61.2-29.7 60.35-30.05 59.27-30.4 58.2-30.75 56.92-30.98 55.65-31.2 54.35-31.2L54.35-31.2Q51.6-31.2 49.4-30.25 47.2-29.3 45.65-27.5 44.1-25.7 43.27-23.13 42.45-20.55 42.45-17.35L42.45-17.35Q42.45-14.25 43.17-11.7 43.9-9.15 45.35-7.33 46.8-5.5 48.97-4.5 51.15-3.5 54.05-3.5L54.05-3.5Q57.4-3.5 59.6-4.2 61.8-4.9 62.9-5.45L62.9-5.45 64.15-1.45Q63.8-1.2 62.9-0.83 62-0.45 60.65-0.1 59.3 0.25 57.5 0.5 55.7 0.75 53.6 0.75ZM91.5-20.2L91.5-34.65 96.35-34.65 96.35 0 91.5 0 91.5-16 74.55-16 74.55 0 69.7 0 69.7-34.65 74.55-34.65 74.55-20.2 91.5-20.2Z" opacity="1" transform="matrix(1,0,0,1,0,0)" fill="#7a26c1" class="undefined-text-0" data-fill-palette-color="primary" id="text-0"/></svg></g></svg></g></svg></g></svg></g><g transform="matrix(1,0,0,1,432.14074343037913,0)"><svg viewBox="0 0 214.37955328277354 214.37955328277354" height="214.37955328277354" width="214.37955328277354"><g data-palette-color="#6936f5"><rect width="58.597077897291435" height="214.37955328277354" fill="#6936f5" stroke="transparent" data-fill-palette-color="accent" x="0" fill-opacity="1"/><rect width="58.597077897291435" height="214.37955328277354" fill="#6936f5" stroke="transparent" data-fill-palette-color="accent" x="71.45985109425784" fill-opacity="0.75"/><rect width="58.597077897291435" height="214.37955328277354" fill="#6936f5" stroke="transparent" data-fill-palette-color="accent" x="142.91970218851569" fill-opacity="0.5"/></g></svg></g></svg></g><defs/></svg><rect width="395.52" height="131.15040834057947" fill="none" stroke="none" visibility="hidden"/></g></svg></g></svg>